<svg width="46" height="46" viewBox="0 0 46 46" fill="none" xmlns="http://www.w3.org/2000/svg">
<rect x="1.94401" y="1.94401" width="41.4723" height="41.4723" rx="20.7361" stroke="white" stroke-width="3.88802"/>
<path d="M20.1375 27.4722V27.0615C20.1455 25.652 20.2704 24.5285 20.512 23.6909C20.7617 22.8532 21.1241 22.1767 21.5993 21.6612C22.0745 21.1458 22.6463 20.6787 23.3148 20.2598C23.8141 19.9377 24.2611 19.6034 24.6558 19.2571C25.0504 18.9108 25.3645 18.5282 25.5981 18.1094C25.8317 17.6826 25.9485 17.2074 25.9485 16.6839C25.9485 16.1281 25.8156 15.6409 25.5498 15.2221C25.284 14.8032 24.9256 14.4811 24.4746 14.2556C24.0316 14.0301 23.5403 13.9173 23.0007 13.9173C22.4772 13.9173 21.9819 14.0341 21.5147 14.2676C21.0476 14.4932 20.665 14.8314 20.367 15.2825C20.069 15.7254 19.9079 16.2771 19.8838 16.9376H14.9547C14.995 15.3268 15.3816 13.9978 16.1145 12.9508C16.8474 11.8957 17.8179 11.1105 19.026 10.595C20.2341 10.0715 21.5671 9.80975 23.0248 9.80975C24.6276 9.80975 26.0451 10.0755 27.2774 10.6071C28.5096 11.1306 29.4761 11.8917 30.1768 12.8904C30.8775 13.8891 31.2279 15.0932 31.2279 16.5026C31.2279 17.445 31.0708 18.2826 30.7567 19.0155C30.4507 19.7404 30.0198 20.3847 29.464 20.9485C28.9083 21.5042 28.2519 22.0076 27.4948 22.4586C26.8586 22.8371 26.3351 23.2318 25.9243 23.6425C25.5216 24.0533 25.2196 24.5285 25.0182 25.0681C24.8249 25.6077 24.7242 26.2722 24.7162 27.0615V27.4722H20.1375ZM22.5295 35.2041C21.7241 35.2041 21.0355 34.9222 20.4637 34.3584C19.8999 33.7866 19.622 33.102 19.6301 32.3046C19.622 31.5153 19.8999 30.8388 20.4637 30.275C21.0355 29.7112 21.7241 29.4294 22.5295 29.4294C23.2947 29.4294 23.9672 29.7112 24.5471 30.275C25.1269 30.8388 25.4209 31.5153 25.429 32.3046C25.4209 32.8362 25.28 33.3235 25.0061 33.7664C24.7404 34.2014 24.39 34.5517 23.9551 34.8175C23.5202 35.0752 23.045 35.2041 22.5295 35.2041Z" fill="white"/>
</svg>
